<svg xmlns="http://www.w3.org/2000/svg" viewBox="0 0 512 512">
 <defs><linearGradient id="g" x1="0" y1="0" x2="1" y2="1"><stop stop-color="#071b33"/><stop offset=".55" stop-color="#0d63c7"/><stop offset="1" stop-color="#22b8ff"/></linearGradient><linearGradient id="a" x1="0" y1="0" x2="1" y2="0"><stop stop-color="#57dcff"/><stop offset="1" stop-color="#fff"/></linearGradient></defs>
 <rect x="18" y="18" width="476" height="476" rx="132" fill="url(#g)"/>
 <path d="M100 330c44-16 82-48 111-96l47-79 48 79c28 47 66 79 108 96h-74c-25-16-48-39-67-70l-15-25-15 25c-20 32-43 55-69 70z" fill="url(#a)"/>
 <circle cx="164" cy="350" r="44" fill="none" stroke="#fff" stroke-width="19"/><circle cx="354" cy="350" r="44" fill="none" stroke="#fff" stroke-width="19"/>
 <path d="M164 350h69l40-62h48l33 62m-121 0-35-73h-38" fill="none" stroke="#fff" stroke-width="18" stroke-linecap="round" stroke-linejoin="round"/>
 <path d="M297 196h58" stroke="#57dcff" stroke-width="17" stroke-linecap="round"/>
</svg>
